<?xml version="1.0"?>
<svg xmlns="http://www.w3.org/2000/svg" viewBox="0 0 512 512" width="512" height="512"><g id="filled_outline" data-name="filled outline"><rect x="24" y="24" width="368" height="368" rx="184" style="fill:#f92714"/><path d="M24,448l88.8-50.745A220.213,220.213,0,0,0,216,264h80A220.213,220.213,0,0,0,399.2,397.255L488,448v40H24Z" style="fill:#0071bc"/><path d="M460,184H300a20,20,0,0,1-20-20h0a20,20,0,0,1,20-20h28a40,40,0,0,1,40-40h16v-4a36,36,0,0,1,36-36h0a36,36,0,0,1,36,36v28h4a28,28,0,0,1,28,28h0A28,28,0,0,1,460,184Z" style="fill:#eaeaea"/><path d="M240,312l24,88,16-72,24,40,16-40h5.086A220.137,220.137,0,0,1,296,264H216a220.177,220.177,0,0,1-47.546,88H216Z" style="fill:#eaeaea"/><path d="M399.2,397.255A220.124,220.124,0,0,1,352.58,361.6,400.891,400.891,0,0,1,176.776,488H488V448Z" style="fill:#005289"/><path d="M496,156a36.052,36.052,0,0,0-32-35.779V100a44,44,0,0,0-87.819-4H368q-1.98,0-3.92.159A191.968,191.968,0,0,0,208,16C102.131,16,16,102.131,16,208A192.07,192.07,0,0,0,124.067,380.736q-7.381,5.085-15.232,9.573l-88.8,50.745A8,8,0,0,0,16,448v40a8,8,0,0,0,8,8H488a8,8,0,0,0,8-8V448a8,8,0,0,0-4.031-6.946l-88.8-50.745a211.038,211.038,0,0,1-57.662-48.3A191.431,191.431,0,0,0,400,208c0-5.333-.221-10.686-.659-16H460A36.04,36.04,0,0,0,496,156ZM384,112a8,8,0,0,0,8-8v-4a28,28,0,0,1,56,0v28a8,8,0,0,0,8,8h4a20,20,0,0,1,0,40H300a12,12,0,0,1,0-24h28a8,8,0,0,0,8-8,32.036,32.036,0,0,1,32-32Zm11.228,292.2L480,452.643V480H32V452.643L116.772,404.2A226.908,226.908,0,0,0,172.031,360H216a8,8,0,0,0,6.86-3.884l14.355-23.925,19.067,69.914A8,8,0,0,0,264,408l.192,0a8,8,0,0,0,7.62-6.263l11.649-52.421,13.681,22.8a8,8,0,0,0,14.288-1.145l12.34-30.85q2.079,2.862,4.252,5.669A227.073,227.073,0,0,0,395.228,404.2ZM185.352,344a226.915,226.915,0,0,0,36.674-72h67.948a226.8,226.8,0,0,0,23.093,52.008,8.02,8.02,0,0,0-.5,1.021l-10.01,25.025-15.7-26.17a8,8,0,0,0-14.67,2.381l-8.983,40.424L247.718,309.9a8,8,0,0,0-14.578-2.011L211.471,344ZM384,208a174.268,174.268,0,0,1-48.376,121.2A211.011,211.011,0,0,1,303.718,261.9,8,8,0,0,0,296,256H216a8,8,0,0,0-7.718,5.895,211.181,211.181,0,0,1-36.952,74.1,211.663,211.663,0,0,1-32.744,33.792A176.061,176.061,0,0,1,32,208c0-97.047,78.953-176,176-176a175.962,175.962,0,0,1,139.461,68.621A48.151,48.151,0,0,0,320.667,136H300a28,28,0,0,0,0,56h83.282C383.759,197.307,384,202.664,384,208Z"/></g></svg>
