<?xml version="1.0" encoding="iso-8859-1"?>
<!-- Generator: Adobe Illustrator 19.0.0, SVG Export Plug-In . SVG Version: 6.00 Build 0)  -->
<svg version="1.1" id="Capa_1" xmlns="http://www.w3.org/2000/svg" xmlns:xlink="http://www.w3.org/1999/xlink" x="0px" y="0px"
	 viewBox="0 0 464.014 464.014" style="enable-background:new 0 0 464.014 464.014;" xml:space="preserve">
<g>
	<path style="fill:#6C7175;" d="M192.007,184.014h48v64h-48V184.014z"/>
	<path style="fill:#6C7175;" d="M216.007,304.014c-4.418,0-8-3.582-8-8v-24c0-4.418,3.582-8,8-8s8,3.582,8,8v24
		C224.007,300.432,220.425,304.014,216.007,304.014z"/>
</g>
<g>
	<circle style="fill:#DC4D41;" cx="248.007" cy="40.014" r="40"/>
	<path style="fill:#DC4D41;" d="M96.007,152.014h32v256h-32V152.014z"/>
	<path style="fill:#DC4D41;" d="M304.007,152.014h32v256h-32V152.014z"/>
</g>
<path style="fill:#C7463B;" d="M80.007,160.014h272c8.837,0,16,7.163,16,16l0,0c0,8.837-7.163,16-16,16h-272
	c-8.837,0-16-7.163-16-16l0,0C64.007,167.178,71.17,160.014,80.007,160.014z"/>
<path style="fill:#DC4D41;" d="M378.343,160.014h-34.336v8h-264v-8H53.671c-13.084,0.001-24.851-7.964-29.712-20.112l-7.952-19.888
	h400l-7.952,19.888C403.194,152.05,391.427,160.015,378.343,160.014z"/>
<path style="fill:#3B869E;" d="M176.007,120.014c48.601,0,88-39.399,88-88h64c0,48.601,39.399,88,88,88H176.007z"/>
<path style="fill:#F0F0F0;" d="M276.007,96.014l20-16l20,16l20-16l3.92-3.92c-7.808-13.378-11.921-28.59-11.92-44.08h-64
	c0.001,15.49-4.112,30.702-11.92,44.08l3.92,3.92L276.007,96.014z"/>
<g>
	<path style="fill:#B3E4E8;" d="M432.007,16.014h-1.472C426.2,3.572,412.6-3,400.159,1.335c-6.877,2.396-12.284,7.802-14.68,14.68
		h-1.472c-8.837,0-16,7.163-16,16s7.163,16,16,16h48c8.837,0,16-7.163,16-16S440.844,16.014,432.007,16.014L432.007,16.014z"/>
	<path style="fill:#B3E4E8;" d="M104.007,48.014h17.472c4.393-12.473,18.066-19.023,30.539-14.629
		c9.596,3.38,16.009,12.455,15.989,22.629v8c0,8.837-7.163,16-16,16h-48c-8.837,0-16-7.163-16-16S95.17,48.014,104.007,48.014z"/>
</g>
<path style="fill:#DC4D41;" d="M200.007,296.014h32c8.837,0,16,7.163,16,16v48c0,8.837-7.163,16-16,16h-32c-8.837,0-16-7.163-16-16
	v-48C184.007,303.178,191.17,296.014,200.007,296.014z"/>
<path style="fill:#C7463B;" d="M64.007,240.014h304v32h-304V240.014z"/>
<g>
	<path style="fill:#AA3C32;" d="M304.007,192.014h32v16h-32V192.014z"/>
	<path style="fill:#AA3C32;" d="M304.007,272.014h32v16h-32V272.014z"/>
	<path style="fill:#AA3C32;" d="M96.007,192.014h32v16h-32V192.014z"/>
	<path style="fill:#AA3C32;" d="M96.007,272.014h32v16h-32V272.014z"/>
	<path style="fill:#AA3C32;" d="M352.007,160.014h-272c-8.837,0-16,7.163-16,16h304
		C368.007,167.178,360.844,160.014,352.007,160.014z"/>
</g>
<path style="fill:#EA6B65;" d="M216.007,352.014c-8.837,0-16-7.163-16-16s7.163-16,16-16c8.837,0,16,7.163,16,16
	S224.844,352.014,216.007,352.014z"/>
<g>
	<path style="fill:#62666A;" d="M192.007,192.014h48v16h-48V192.014z"/>
	<path style="fill:#62666A;" d="M208.007,272.014h16v16h-16V272.014z"/>
</g>
<g>
	<path style="fill:#6C7175;" d="M88.007,400.014h48c8.837,0,16,7.163,16,16v24l0,0h-80l0,0v-24
		C72.007,407.178,79.17,400.014,88.007,400.014z"/>
	<path style="fill:#6C7175;" d="M296.007,400.014h48c8.837,0,16,7.163,16,16v24l0,0h-80l0,0v-24
		C280.007,407.178,287.17,400.014,296.007,400.014z"/>
</g>
<g>
	<path style="fill:#62666A;" d="M72.007,432.014h80v32h-80V432.014z"/>
	<path style="fill:#62666A;" d="M280.007,432.014h80v32h-80V432.014z"/>
</g>
<g>
</g>
<g>
</g>
<g>
</g>
<g>
</g>
<g>
</g>
<g>
</g>
<g>
</g>
<g>
</g>
<g>
</g>
<g>
</g>
<g>
</g>
<g>
</g>
<g>
</g>
<g>
</g>
<g>
</g>
</svg>
