<?xml version="1.0" encoding="iso-8859-1"?>
<!-- Generator: Adobe Illustrator 19.0.0, SVG Export Plug-In . SVG Version: 6.00 Build 0)  -->
<svg version="1.1" id="Capa_1" xmlns="http://www.w3.org/2000/svg" xmlns:xlink="http://www.w3.org/1999/xlink" x="0px" y="0px"
	 viewBox="0 0 512 512" style="enable-background:new 0 0 512 512;" xml:space="preserve">
<circle style="fill:#87D7F5;" cx="256" cy="256" r="256"/>
<g>
	<path style="fill:#BAEAF7;" d="M155.662,315.177H115.46H72.308c-7.358,0-13.323-5.965-13.323-13.323s5.965-13.323,13.323-13.323
		H93.01c7.358,0,13.323-5.965,13.323-13.323s-5.965-13.323-13.323-13.323H0.075c1.107,49.063,16.02,94.713,41.002,133.23h55.368
		c7.358,0,13.323-5.965,13.323-13.323s-5.965-13.323-13.323-13.323h-5.611c-7.358,0-13.323-5.965-13.323-13.323
		s5.965-13.323,13.323-13.323h24.626h40.202c7.358,0,13.323-5.965,13.323-13.323S163.02,315.177,155.662,315.177z"/>
	<path style="fill:#BAEAF7;" d="M446.063,84.51h-44.465c-7.358,0-13.323,5.965-13.323,13.323s5.965,13.323,13.323,13.323h21.354
		c7.358,0,13.323,5.965,13.323,13.323s-5.965,13.323-13.323,13.323h-38.354c-7.358,0-13.323,5.965-13.323,13.323
		s5.965,13.323,13.323,13.323h84.854c7.358,0,13.323,5.965,13.323,13.323s-5.965,13.323-13.323,13.323h-46.854
		c-7.358,0-13.323,5.965-13.323,13.323s5.965,13.323,13.323,13.323h86.554C501.533,166.899,478.965,120.952,446.063,84.51z"/>
</g>
<path style="fill:#E0E2E2;" d="M256,254.447c-4.143,0-7.5-3.357-7.5-7.5v-25c0-4.143,3.357-7.5,7.5-7.5s7.5,3.357,7.5,7.5v25
	C263.5,251.09,260.143,254.447,256,254.447z"/>
<rect x="236.45" y="147.72" style="fill:#EA5050;" width="39.11" height="41.09"/>
<rect x="236.45" y="147.72" style="fill:#D84545;" width="19.553" height="41.09"/>
<path style="fill:#F95E5A;" d="M423.855,200.601H256h-12H76.145v17.704c0,5.617,4.554,10.171,10.171,10.171H244h12h157.685h12
	c5.617,0,10.171-4.554,10.171-10.171v-17.704H423.855z"/>
<g>
	<path style="fill:#EA5050;" d="M183.12,218.305v-17.704H76.145v17.704c0,5.617,4.554,10.171,10.171,10.171H193.29
		C187.673,228.476,183.12,223.923,183.12,218.305z"/>
	<path style="fill:#EA5050;" d="M436.189,186.809h-14.333H256h-14.333H75.811c-4.143,0-7.5,3.357-7.5,7.5s3.357,7.5,7.5,7.5h165.856
		H256h165.856h14.333c4.143,0,7.5-3.357,7.5-7.5C443.689,190.167,440.332,186.809,436.189,186.809z"/>
</g>
<path style="fill:#D84545;" d="M176.04,194.309c0-4.143,3.357-7.5,7.5-7.5H75.811c-4.143,0-7.5,3.357-7.5,7.5s3.357,7.5,7.5,7.5
	H183.54C179.397,201.809,176.04,198.452,176.04,194.309z"/>
<g>
	<path style="fill:#F95E5A;" d="M166.072,378.66c0-4.143-3.357-7.5-7.5-7.5H114.56c-4.143,0-7.5,3.357-7.5,7.5
		c0,4.142,3.357,7.5,7.5,7.5h44.012C162.715,386.16,166.072,382.802,166.072,378.66z"/>
	<rect x="117.01" y="164.31" style="fill:#F95E5A;" width="39.11" height="214.35"/>
</g>
<rect x="117.01" y="164.31" style="fill:#EA5050;" width="19.553" height="214.35"/>
<path style="fill:#F95E5A;" d="M112.037,467.703c10.607,7.227,21.782,13.681,33.449,19.273h15.61V378.66h-49.059
	C112.037,378.66,112.037,467.703,112.037,467.703z"/>
<g>
	<path style="fill:#EA5050;" d="M136.566,482.48V378.66h-24.529v89.043C119.91,473.068,128.098,478.004,136.566,482.48z"/>
	<path style="fill:#EA5050;" d="M166.072,157.976c0-4.143-3.357-7.5-7.5-7.5H114.56c-4.143,0-7.5,3.357-7.5,7.5s3.357,7.5,7.5,7.5
		h44.012C162.715,165.476,166.072,162.119,166.072,157.976z"/>
</g>
<path style="fill:#D84545;" d="M130.06,157.976c0-4.143,3.357-7.5,7.5-7.5h-23c-4.143,0-7.5,3.357-7.5,7.5s3.357,7.5,7.5,7.5h23
	C133.418,165.476,130.06,162.119,130.06,157.976z"/>
<path style="fill:#EA5050;" d="M158.572,479.476h-27.505c9.728,5.45,19.843,10.292,30.303,14.456
	c2.756-1.109,4.703-3.803,4.703-6.956C166.072,482.834,162.715,479.476,158.572,479.476z"/>
<path style="fill:#F95E5A;" d="M57.978,124.501l11.186,21.523c1.422,2.736,4.249,4.452,7.332,4.452H256h180.209
	c2.65,0,5.08-1.475,6.302-3.827l11.511-22.149C432.06,124.501,79.988,124.501,57.978,124.501z"/>
<path style="fill:#EA5050;" d="M152.413,146.024L141.227,124.5h-83.25l11.186,21.524c1.422,2.736,4.249,4.452,7.332,4.452h83.25
	C156.662,150.476,153.835,148.76,152.413,146.024z"/>
<g>
	<path style="fill:#F95E5A;" d="M345.928,378.66c0-4.143,3.357-7.5,7.5-7.5h44.012c4.143,0,7.5,3.357,7.5,7.5
		c0,4.142-3.357,7.5-7.5,7.5h-44.012C349.285,386.16,345.928,382.802,345.928,378.66z"/>
	<rect x="355.88" y="164.31" style="fill:#F95E5A;" width="39.11" height="214.35"/>
</g>
<rect x="355.88" y="164.31" style="fill:#EA5050;" width="19.553" height="214.35"/>
<path style="fill:#F95E5A;" d="M350.904,486.976h15.61c11.668-5.593,22.842-12.046,33.449-19.273V378.66h-49.059V486.976z"/>
<path style="fill:#EA5050;" d="M375.434,378.66h-24.529v108.316h15.61c3.007-1.441,5.98-2.942,8.92-4.496V378.66H375.434z"/>
<g>
	<path style="fill:#F95E5A;" d="M480.747,378.66h-32.004c-4.288,0-7.764,3.476-7.764,7.764v46.54
		C456.493,416.751,469.894,398.503,480.747,378.66z"/>
	<path style="fill:#F95E5A;" d="M71.021,432.964v-46.791c0-4.149-3.364-7.513-7.513-7.513H31.253
		C42.106,398.503,55.507,416.751,71.021,432.964z"/>
</g>
<path style="fill:#D84545;" d="M353.428,479.476c-4.143,0-7.5,3.358-7.5,7.5c0,3.153,1.947,5.846,4.703,6.955
	c10.46-4.164,20.574-9.005,30.302-14.455H353.428z"/>
<path style="fill:#EA5050;" d="M166.072,378.66c0-4.143-3.357-7.5-7.5-7.5H114.56c-4.143,0-7.5,3.357-7.5,7.5
	c0,4.142,3.357,7.5,7.5,7.5h44.012C162.715,386.16,166.072,382.802,166.072,378.66z"/>
<path style="fill:#D84545;" d="M130.06,378.66c0-4.143,3.357-7.5,7.5-7.5h-23c-4.143,0-7.5,3.357-7.5,7.5s3.357,7.5,7.5,7.5h23
	C133.418,386.16,130.06,382.802,130.06,378.66z"/>
<path style="fill:#EA5050;" d="M404.94,157.976c0-4.143-3.357-7.5-7.5-7.5h-44.012c-4.143,0-7.5,3.357-7.5,7.5s3.357,7.5,7.5,7.5
	h44.012C401.582,165.476,404.94,162.119,404.94,157.976z"/>
<path style="fill:#D84545;" d="M368.928,157.976c0-4.143,3.357-7.5,7.5-7.5h-23c-4.143,0-7.5,3.357-7.5,7.5s3.357,7.5,7.5,7.5h23
	C372.285,165.476,368.928,162.119,368.928,157.976z"/>
<path style="fill:#EA5050;" d="M404.94,378.66c0-4.143-3.357-7.5-7.5-7.5h-44.012c-4.143,0-7.5,3.357-7.5,7.5
	c0,4.142,3.357,7.5,7.5,7.5h44.012C401.582,386.16,404.94,382.802,404.94,378.66z"/>
<path style="fill:#D84545;" d="M368.928,378.66c0-4.143,3.357-7.5,7.5-7.5h-23c-4.143,0-7.5,3.357-7.5,7.5s3.357,7.5,7.5,7.5h23
	C372.285,386.16,368.928,382.802,368.928,378.66z"/>
<circle style="fill:#F95E5A;" cx="256" cy="282.44" r="42.908"/>
<path style="fill:#EA5050;" d="M242.223,290.397c-9.49-16.436-6.859-36.535,5.104-49.976c-4.381,0.905-8.695,2.503-12.781,4.862
	c-20.523,11.849-27.554,38.091-15.706,58.614c11.849,20.523,38.091,27.554,58.614,15.706c4.086-2.359,7.628-5.296,10.602-8.638
	C270.434,314.604,251.713,306.833,242.223,290.397z"/>
<path style="fill:#FCCB5B;" d="M260.168,363.685h-8.335c-3.085,0-5.609-2.524-5.609-5.609V330.96c0-3.085,2.524-5.609,5.609-5.609
	h8.335c3.085,0,5.609,2.524,5.609,5.609v27.115C265.776,361.16,263.253,363.685,260.168,363.685z"/>
<path style="fill:#FBB659;" d="M260.168,346.018h-8.335c-3.085,0-5.609-2.524-5.609-5.609v17.667c0,3.085,2.524,5.609,5.609,5.609
	h8.335c3.085,0,5.609-2.524,5.609-5.609v-17.667C265.777,343.494,263.253,346.018,260.168,346.018z"/>
<path style="fill:#EA5050;" d="M473.939,109.997h-14.333c-152.746,0-325.435,0-423.295,0c-4.143,0-7.5,3.357-7.5,7.5
	s3.357,7.5,7.5,7.5c83.618,0,303.812,0,423.295,0h14.333c4.143,0,7.5-3.357,7.5-7.5S478.082,109.997,473.939,109.997z"/>
<path style="fill:#D84545;" d="M136.54,117.497c0-4.143,3.357-7.5,7.5-7.5H36.311c-4.143,0-7.5,3.357-7.5,7.5
	c0,4.142,3.358,7.5,7.5,7.5H144.04C139.897,124.997,136.54,121.639,136.54,117.497z"/>
<path style="fill:#4BBCBC;" d="M498.851,69.868C472.368,74.152,366.438,91.824,256,91.824S39.632,74.152,13.149,69.868
	c-2.251-0.364-3.914,2.042-2.786,4.024l18.341,32.227c1.365,2.398,3.911,3.878,6.669,3.878c24.446,0,416.754,0,441.254,0
	c2.758,0,5.305-1.481,6.669-3.878l18.341-32.227C502.766,71.91,501.102,69.503,498.851,69.868z"/>
<path style="fill:#39AAA7;" d="M138.361,106.118l-12.063-21.196C71.382,79.47,28.652,72.376,13.149,69.868
	c-2.251-0.364-3.914,2.042-2.786,4.024l18.341,32.227c1.365,2.398,3.911,3.878,6.669,3.878H145.03
	C142.272,109.997,139.725,108.516,138.361,106.118z"/>
<g>
</g>
<g>
</g>
<g>
</g>
<g>
</g>
<g>
</g>
<g>
</g>
<g>
</g>
<g>
</g>
<g>
</g>
<g>
</g>
<g>
</g>
<g>
</g>
<g>
</g>
<g>
</g>
<g>
</g>
</svg>
